HIERARCHY
ROOT Hips
{
	OFFSET 0.000000 0.000000 0.000000
	CHANNELS 6 Xposition Yposition Zposition Zrotation Yrotation Xrotation 
	JOINT LHipJoint
	{
		OFFSET 0.000000 0.000000 0.000000
		CHANNELS 3 Zrotation Yrotation Xrotation
		JOINT LeftUpLeg
		{
			OFFSET 8.178360 -10.767780 5.035740
			CHANNELS 3 Zrotation Yrotation Xrotation
			JOINT LeftLeg
			{
				OFFSET 14.688660 -40.356780 0.000000
				CHANNELS 3 Zrotation Yrotation Xrotation
				JOINT LeftFoot
				{
					OFFSET 15.373200 -42.237540 0.000000
					CHANNELS 3 Zrotation Yrotation Xrotation
					JOINT LeftToeBase
					{
						OFFSET 0.945840 -2.598660 13.935300
						CHANNELS 3 Zrotation Yrotation Xrotation
						End Site
						{
							OFFSET 0.000000 0.000000 0.000000
						}
					}
				}
			}
		}
	}
	JOINT RHipJoint
	{
		OFFSET 0.000000 0.000000 0.000000
		CHANNELS 3 Zrotation Yrotation Xrotation
		JOINT RightUpLeg
		{
			OFFSET -7.833120 -10.767780 5.035740
			CHANNELS 3 Zrotation Yrotation Xrotation
			JOINT RightLeg
			{
				OFFSET -15.255180 -41.913300 0.000000
				CHANNELS 3 Zrotation Yrotation Xrotation
				JOINT RightFoot
				{
					OFFSET -15.409560 -42.337380 0.000000
					CHANNELS 3 Zrotation Yrotation Xrotation
					JOINT RightToeBase
					{
						OFFSET -0.988380 -2.715540 14.178900
						CHANNELS 3 Zrotation Yrotation Xrotation
						End Site
						{
							OFFSET 0.000000 0.000000 0.000000
						}
					}
				}
			}
		}
	}
	JOINT LowerBack
	{
		OFFSET 0.000000 0.000000 0.000000
		CHANNELS 3 Zrotation Yrotation Xrotation
		JOINT Spine
		{
			OFFSET 0.169620 12.213540 -1.160280
			CHANNELS 3 Zrotation Yrotation Xrotation
			JOINT Spine1
			{
				OFFSET 0.340320 12.293100 -0.256500
				CHANNELS 3 Zrotation Yrotation Xrotation
				JOINT Neck
				{
					OFFSET 0.000000 0.000000 0.000000
					CHANNELS 3 Zrotation Yrotation Xrotation
					JOINT Neck1
					{
						OFFSET -0.325020 10.477440 1.032120
						CHANNELS 3 Zrotation Yrotation Xrotation
						JOINT Head
						{
							OFFSET 0.624420 10.568160 -0.743820
							CHANNELS 3 Zrotation Yrotation Xrotation
							End Site
							{
								OFFSET 0.000000 0.000000 0.000000
							}
						}
					}
				}
				JOINT LeftShoulder
				{
					OFFSET 0.000000 0.000000 0.000000
					CHANNELS 3 Zrotation Yrotation Xrotation
					JOINT LeftArm
					{
						OFFSET 20.174460 7.205340 -1.867260
						CHANNELS 3 Zrotation Yrotation Xrotation
						JOINT LeftForeArm
						{
							OFFSET 29.898000 -0.000000 -0.000000
							CHANNELS 3 Zrotation Yrotation Xrotation
							JOINT LeftHand
							{
								OFFSET 20.901360 -0.000000 -0.000000
								CHANNELS 3 Zrotation Yrotation Xrotation
								JOINT LeftFingerBase
								{
									OFFSET 0.000000 0.000000 0.000000
									CHANNELS 3 Zrotation Yrotation Xrotation
									JOINT LeftHandIndex1
									{
										OFFSET 4.291560 -0.000000 -0.000000
										CHANNELS 3 Zrotation Yrotation Xrotation
										End Site
										{
											OFFSET 0.000000 0.000000 0.000000
										}
									}
								}
								JOINT LThumb
								{
									OFFSET 0.000000 0.000000 0.000000
									CHANNELS 3 Zrotation Yrotation Xrotation
									End Site
									{
										OFFSET 0.000000 0.000000 0.000000
									}
								}
							}
						}
					}
				}
				JOINT RightShoulder
				{
					OFFSET 0.000000 0.000000 0.000000
					CHANNELS 3 Zrotation Yrotation Xrotation
					JOINT RightArm
					{
						OFFSET -18.819600 8.244300 -2.427900
						CHANNELS 3 Zrotation Yrotation Xrotation
						JOINT RightForeArm
						{
							OFFSET -31.451400 -0.000000 -0.000000
							CHANNELS 3 Zrotation Yrotation Xrotation
							JOINT RightHand
							{
								OFFSET -20.665020 -0.000000 -0.000000
								CHANNELS 3 Zrotation Yrotation Xrotation
								JOINT RightFingerBase
								{
									OFFSET 0.000000 0.000000 0.000000
									CHANNELS 3 Zrotation Yrotation Xrotation
									JOINT RightHandIndex1
									{
										OFFSET -3.735180 -0.000000 -0.000000
										CHANNELS 3 Zrotation Yrotation Xrotation
										End Site
										{
											OFFSET 0.000000 0.000000 0.000000
										}
									}
								}
								JOINT RThumb
								{
									OFFSET 0.000000 0.000000 0.000000
									CHANNELS 3 Zrotation Yrotation Xrotation
									End Site
									{
										OFFSET 0.000000 0.000000 0.000000
									}
								}
							}
						}
					}
				}
			}
		}
	}
}
MOTION
Frames:	12
Frame Time:	0.0333333
2.861676 102.818208 67.234074 -4.841877 -6.933465 2.764165 0.845094 0.723170 0.045084 -10.649225 -10.513743 -32.405831 -0.314751 7.124813 18.978234 -0.684773 5.866720 7.159807 0.124200 -2.272000 -6.257900 -2.632891 -2.743401 1.198268 31.109494 1.981485 19.189980 -0.873283 -5.175740 19.079353 -0.625894 2.950271 1.999890 -0.202500 2.897700 -7.994200 4.260020 3.096047 3.581584 1.171868 3.761263 -1.499488 1.172898 2.502041 -1.813833 -7.297754 -2.171274 -12.262205 3.258786 -1.897015 14.129555 2.778500 -1.407700 9.618300 -7.241999 3.485540 -2.656387 -81.271399 14.522069 21.979749 8.936022 -18.201683 -1.685125 -0.626029 -3.401646 15.012466 9.068363 23.894399 4.092400 -7.125000 0.000000 0.000000 -23.165700 56.123300 -6.569600 5.351250 -2.231337 -2.140861 77.557020 7.266335 18.432709 -19.751382 28.730498 -6.764059 1.070967 -0.245562 -0.265347 -14.978909 11.947354 -3.463700 7.125000 0.000000 0.000000 7.769700 -17.425900 5.134000 
3.109746 103.046676 74.360700 -3.414015 -6.291344 1.685781 0.930025 0.812171 0.225039 -13.096733 -11.573311 -31.427138 0.397291 8.698535 23.979172 0.536176 2.215678 14.361470 0.222600 -3.037200 -8.382400 -2.675096 -2.741334 1.166435 28.851955 0.866171 18.102802 -1.984834 -7.467241 26.129411 -0.735946 3.115114 12.032039 -0.070800 1.717200 -4.724700 3.187831 3.030912 4.081040 0.976423 3.682626 -1.621924 1.064048 2.459662 -2.526956 -7.280970 -2.363491 -11.572019 3.363357 -2.221022 14.592821 2.783900 -1.568800 9.727900 -7.376216 3.581528 -2.635234 -81.311394 15.425569 19.375528 7.905647 -16.272891 -1.204837 -0.640235 -3.435225 16.134056 8.470902 24.267984 3.834000 -7.125000 0.000000 0.000000 -24.094800 56.357400 -6.994700 5.291299 -2.305396 -2.195663 77.727862 5.954971 16.677894 -20.080241 29.131061 -6.939704 1.180693 -0.258711 -0.752794 -16.168542 12.403031 -3.901900 7.125000 0.000000 0.000000 6.871900 -16.844400 4.619400 
3.327798 103.220016 81.171270 -1.175071 -5.811135 0.787331 1.077748 0.956090 0.441119 -17.331686 -10.243669 -30.258428 1.229707 10.075837 28.735848 0.958244 -0.489613 14.191812 0.005200 -0.466500 -1.281800 -2.716970 -2.715234 1.093195 26.021106 1.703130 13.040930 -4.448793 -11.073271 37.852432 -1.621982 0.653766 26.396275 -0.011300 -0.685300 1.883100 1.407101 3.085086 4.270718 0.582495 3.703518 -1.688898 0.896013 2.449307 -2.942612 -7.849002 -2.597254 -10.904930 4.155412 -2.529257 14.937955 3.246600 -1.701500 9.821900 -7.568166 3.686235 -2.608830 -80.901691 15.404096 15.651604 7.251678 -14.973860 -0.898701 -0.684395 -3.480019 18.560318 7.580907 25.043085 3.446800 -7.125000 0.000000 0.000000 -25.674600 56.885100 -7.831400 5.200634 -2.346743 -2.225496 78.716863 4.259055 14.006757 -20.149630 29.223962 -6.975191 1.189934 -0.113755 -1.891896 -16.134049 11.263968 -3.513700 7.125000 0.000000 0.000000 6.881400 -18.148300 4.427800 
3.618744 103.915836 87.791346 -0.423861 -6.349264 -0.319599 1.113051 1.162879 0.667310 -19.878797 -8.965524 -26.876297 1.902558 10.792080 31.677344 0.758794 -0.720173 10.844900 0.069900 1.705500 4.692600 -2.881252 -2.670524 0.959468 24.935315 4.016005 7.062967 -7.916143 -14.369317 50.354516 -3.113036 -4.091084 37.288087 -0.228700 -3.078300 8.496800 1.386210 3.221102 5.152461 0.462408 3.933008 -1.506301 0.553241 2.520918 -2.912656 -7.806789 -2.425366 -11.252624 3.739362 -2.241791 14.848221 3.098100 -1.601600 9.821100 -7.605468 3.650459 -2.571772 -81.183746 14.873703 13.120310 7.446529 -15.238684 -0.918712 -0.682177 -3.589587 18.639361 7.460187 26.140929 3.498500 -7.125000 0.000000 0.000000 -26.753900 57.923000 -8.877700 5.262054 -2.421397 -2.234195 79.315941 3.305071 12.915632 -19.621506 28.591884 -6.624313 1.257471 -0.096369 -2.824750 -16.611527 11.230145 -3.620400 7.125000 0.000000 0.000000 6.500200 -18.143400 4.179900 
3.727776 104.466492 94.026150 1.342557 -6.493070 -0.746251 1.106937 1.352491 0.852404 -22.994562 -9.526544 -22.451987 2.122781 10.752359 32.224090 0.283488 0.676551 6.564673 0.024900 1.019000 2.801000 -3.120028 -2.625364 0.843475 22.634247 5.362381 -0.980411 -11.250774 -16.710110 62.273261 -1.528771 -4.993882 28.005038 -0.446200 -4.285900 11.882400 -0.312835 3.006413 4.980883 0.363729 3.556482 -1.382550 1.292020 2.302766 -2.561149 -8.174419 -2.055201 -11.209667 3.415353 -1.612017 14.768443 3.075000 -1.368700 9.671100 -7.694441 3.587251 -2.503995 -81.667100 13.505026 12.750235 7.612525 -15.455850 -0.965263 -0.802496 -3.598717 15.810835 9.649172 26.011347 4.743500 -7.125000 0.000000 0.000000 -24.210000 58.403800 -8.247100 5.436979 -2.455448 -2.212015 79.197449 3.207491 13.667509 -18.029771 26.648626 -5.688179 1.167578 -0.147626 -2.070131 -15.302937 10.950284 -3.252500 7.125000 0.000000 0.000000 7.482100 -18.486800 4.764300 
3.795762 104.956500 100.083324 3.066474 -5.745465 -0.881244 1.077731 1.530884 1.026301 -26.116335 -9.250992 -17.978999 2.006742 10.286776 31.358770 0.128794 1.023409 3.603396 0.018300 0.874100 2.402400 -3.225189 -2.608942 0.835469 20.001568 5.824124 -9.452771 -13.389059 -17.973613 69.383044 -0.161215 -6.163411 18.243256 -0.278000 -3.391100 9.369500 -1.772459 2.491254 4.554703 0.204185 2.805816 -1.370573 1.712016 1.894841 -2.390248 -8.281366 -1.760714 -10.717724 3.133461 -1.199090 14.859928 3.016500 -1.220900 9.513200 -7.790433 3.535635 -2.445698 -81.534472 11.856778 13.740068 7.820470 -15.755625 -1.033432 -0.701912 -3.671578 13.955488 9.567354 26.558127 4.789800 -7.125000 0.000000 0.000000 -24.758400 58.925000 -8.762800 5.538844 -2.515374 -2.209036 79.892658 2.123528 13.013721 -16.890461 25.245449 -5.073888 1.023957 -0.296992 2.176297 -14.121406 11.007752 -3.017700 7.125000 0.000000 0.000000 8.399400 -18.432600 5.370600 
3.684288 105.174558 105.957966 3.522397 -5.136644 -1.128787 1.047968 1.704075 1.188539 -27.450499 -8.061691 -13.775215 1.923656 9.910383 30.708252 0.271688 0.336950 0.775149 0.011700 0.697300 1.916200 -3.301054 -2.576013 0.883903 19.233073 6.744490 -16.892410 -14.030087 -18.568297 71.695605 0.458079 -6.086646 10.786076 -0.059400 -1.572400 4.325200 -2.137131 1.945870 4.355940 0.222015 2.089056 -1.293682 2.062053 1.484746 -2.073791 -8.299737 -1.359175 -10.966944 3.051897 -0.628148 15.440365 3.043600 -0.990700 9.747400 -7.795517 3.473281 -2.425606 -81.217704 10.047242 15.747369 8.388658 -16.815459 -1.369884 -1.016967 -3.251091 13.543033 12.336653 22.554700 5.599800 -7.125000 0.000000 0.000000 -18.530200 55.567800 -4.928500 5.651338 -2.593740 -2.232166 80.706532 0.522443 12.402118 -15.942665 24.044616 -4.567319 0.986530 -0.428728 4.821157 -13.894029 11.418188 -3.096900 7.125000 0.000000 0.000000 8.563200 -17.939800 5.572000 
3.486444 104.838288 111.846084 5.047250 -3.734393 -1.182211 1.089725 1.826887 1.294506 -29.997104 -7.656078 -9.740889 1.977366 9.739729 30.644921 0.427308 -0.149707 -2.369702 0.014600 0.780300 2.144500 -3.282078 -2.521836 0.923966 17.197162 7.104588 -23.688661 -13.396373 -18.763467 70.189496 0.331090 -3.712148 3.882425 -0.036000 -1.224600 3.366900 -3.820933 1.139397 3.918516 0.134888 0.978344 -1.207504 2.774476 0.869033 -1.612531 -8.354158 -1.283497 -10.765576 2.794931 -0.510136 15.234346 2.943800 -0.951400 9.550000 -7.791828 3.404734 -2.393536 -80.548727 7.887888 19.340287 9.073940 -18.047781 -1.689515 -0.928012 -3.271196 12.617951 12.066195 22.792375 5.505400 -7.125000 0.000000 0.000000 -18.975800 55.728900 -5.128500 5.710088 -2.656698 -2.224594 81.332419 -0.971957 12.363388 -15.157516 23.024533 -4.153069 1.015295 -0.545751 5.663146 -14.055938 12.134999 -3.355600 7.125000 0.000000 0.000000 8.412800 -17.097200 5.629100 
3.212646 104.200044 117.576786 5.755599 -2.351072 -0.918545 1.101882 1.935613 1.409760 -31.436468 -7.690149 -6.025630 2.000141 9.571413 30.477826 0.530912 -0.190627 -5.180267 0.008700 0.601800 1.653800 -3.232319 -2.439879 0.961769 16.315594 7.919236 -29.390207 -11.653087 -18.425762 65.051624 0.180126 -2.768621 -1.373907 -0.242400 3.168000 -8.746900 -4.774562 0.367822 4.161333 0.144053 -0.079055 -1.289107 3.326249 0.299787 -1.847890 -8.339332 -1.136403 -11.159617 2.725328 -0.277774 15.215027 2.926100 -0.848700 9.642600 -7.685284 3.289948 -2.426320 -79.499651 5.824004 23.737943 10.104014 -19.850972 -2.216278 -0.853899 -3.207768 10.693929 12.329417 22.104992 5.495000 -7.125000 0.000000 0.000000 -18.211300 55.053300 -4.608600 5.662262 -2.673817 -2.304596 81.847055 -3.536564 13.557120 -15.180431 23.159521 -4.213451 0.949576 -0.443006 4.970454 -13.053461 11.506681 -2.933800 7.125000 0.000000 0.000000 9.171600 -17.888500 5.988400 
2.893524 103.993014 123.556782 7.051032 -1.420413 -0.572919 1.033517 2.073701 1.581017 -33.109592 -5.685493 -1.348201 1.476890 8.469805 27.440490 0.650699 -0.476742 -6.451184 0.016000 0.817300 2.246100 -3.060436 -2.325912 0.870485 14.459935 9.092377 -32.943727 -8.479325 -16.983427 54.906256 0.425664 -4.060411 -1.445616 -0.176600 2.707300 -7.464900 -6.372057 -0.117611 3.665353 0.044855 -0.708740 -1.105490 4.008917 -0.124917 -0.985562 -8.522525 -1.207345 -11.905654 2.896289 -0.297557 14.832724 3.029000 -0.824400 9.621100 -7.551342 3.198027 -2.452316 -78.080098 3.403884 28.826824 11.601460 -22.417548 -3.050175 -0.877316 -3.032716 7.702054 13.862905 20.007155 5.753000 -7.125000 0.000000 0.000000 -15.290400 53.166400 -3.129600 5.655660 -2.713664 -2.284310 82.171610 -4.890670 13.889328 -14.593454 22.449424 -3.917334 1.011245 -0.746004 5.568879 -13.535815 14.174213 -3.802900 7.125000 0.000000 0.000000 8.759000 -14.860000 6.295000 
2.520504 103.723506 129.545358 8.061124 -0.195080 0.337093 0.920948 2.240446 1.839742 -33.610330 -3.126690 3.045466 0.789462 6.925899 23.130188 1.008615 -2.046466 -6.342696 0.000100 -0.049200 -0.135100 -2.811571 -2.212395 0.746134 12.503237 10.270025 -34.660342 -4.785706 -14.056310 41.322802 1.094347 -7.540981 2.560001 -0.207100 2.930000 -8.084100 -7.670497 -0.734065 3.570414 -0.002598 -1.566370 -1.341165 4.615041 -0.575994 -1.502300 -8.583845 -1.178568 -11.582709 2.922458 -0.270345 14.340268 3.046300 -0.792700 9.366400 -7.352479 3.107057 -2.533106 -76.557284 1.621700 31.748491 13.490660 -25.343352 -4.118977 -0.656920 -3.074368 7.522095 12.483871 21.075378 5.318800 -7.125000 0.000000 0.000000 -17.399300 53.926500 -3.909200 5.532170 -2.731263 -2.345780 82.411363 -7.721032 14.671576 -14.419557 22.342487 -3.855558 1.047524 -0.849044 5.707510 -13.711304 15.226152 -4.153600 7.125000 0.000000 0.000000 8.618900 -13.680500 6.410400 
2.012118 103.403160 135.614778 7.699402 1.720343 1.638423 0.783720 2.441007 2.106998 -31.831534 -1.456699 6.749402 0.238389 5.509823 19.250833 1.526629 -4.623837 -5.211103 0.046300 -1.388000 -3.817100 -2.515055 -2.145262 0.562497 11.453502 11.891305 -34.028668 -1.694140 -9.743721 26.261044 2.239061 -13.250289 5.647360 -0.335900 3.724300 -10.302400 -7.609502 -1.537925 2.763937 0.179673 -2.553382 -1.496886 5.135212 -1.120516 -1.301146 -8.840911 -1.272551 -12.126047 2.900636 -0.286029 14.192118 3.084400 -0.813100 9.437100 -7.170175 3.021150 -2.577784 -75.332164 -0.808182 33.626897 15.143402 -27.660006 -5.084642 -0.634023 -3.069902 6.350229 13.061251 21.368423 5.645100 -7.125000 0.000000 0.000000 -16.932100 54.311600 -3.960700 5.540888 -2.760142 -2.387108 82.515398 -9.493972 13.938105 -13.858329 21.658439 -3.638977 0.844284 -0.538307 7.076440 -11.633749 11.795752 -2.689600 7.125000 0.000000 0.000000 10.205300 -17.612100 6.747400 
